<svg id="Layer_1" data-name="Layer 1" xmlns="http://www.w3.org/2000/svg" viewBox="0 0 115.38 115.38"><defs><style>.cls-1{fill:#173964;}.cls-2{fill:#75cede;}</style></defs><title>phone</title><path class="cls-1" d="M0,57.69a57.69,57.69,0,1,1,57.69,57.69A57.69,57.69,0,0,1,0,57.69Z"/><path class="cls-2" d="M88.85,36.1c-1-4.54-3.33-8-6.72-10.1l-6.19-3.78a13,13,0,0,0-4.77-1.74,12.7,12.7,0,0,0-12.31,5.31L56.28,29.7a11.47,11.47,0,0,0-1.65,8.88,12.09,12.09,0,0,0,5.58,7.74l5.65,3.44a6.52,6.52,0,0,1-.09,1.93A24.52,24.52,0,0,1,62,60.52a25.28,25.28,0,0,1-6.55,7,8.1,8.1,0,0,1-2.11,1.08h0l-5.74-3.5a12.87,12.87,0,0,0-17,3.57l-2.58,3.9a11.49,11.49,0,0,0-1.6,9.13,12.06,12.06,0,0,0,5.54,7.5L38,93a13.83,13.83,0,0,0,5.27,1.88,17.13,17.13,0,0,0,2.51.19C51,95.05,57,92.79,63,88.52A65.11,65.11,0,0,0,79.08,71.45a66.68,66.68,0,0,0,8.78-18.82C89.54,46.48,89.88,40.76,88.85,36.1ZM82.26,51.26a60.8,60.8,0,0,1-8,17c-8.2,12.38-19.91,21-28.46,21a11.35,11.35,0,0,1-1.68-.12A8.38,8.38,0,0,1,41,88.07l-6.2-3.79a6.35,6.35,0,0,1-2.94-3.94,5.73,5.73,0,0,1,.81-4.6l2.58-3.89A6.77,6.77,0,0,1,40.92,69a7,7,0,0,1,3.59,1l6.19,3.78a4.37,4.37,0,0,0,2.32.62c4,0,9.49-4.31,13.73-10.71a30.05,30.05,0,0,0,4.71-11.09c.59-3.65-.14-6.29-2.08-7.45L63.21,41.4a6.35,6.35,0,0,1-3-4.06,5.76,5.76,0,0,1,.83-4.46L63.66,29a6.65,6.65,0,0,1,5.58-2.89,7.59,7.59,0,0,1,1.07.08,7.1,7.1,0,0,1,2.63,1l6.19,3.77c2.05,1.26,3.43,3.43,4.11,6.47C84.07,41.15,83.74,46,82.26,51.26Z"/></svg>